<mxfile host="65bd71144e">
    <diagram id="YK4un_4zEm3ISnry--iz" name="第1頁">
        <mxGraphModel dx="1130" dy="1700" grid="1" gridSize="10" guides="1" tooltips="1" connect="1" arrows="1" fold="1" page="1" pageScale="1" pageWidth="827" pageHeight="1169" math="0" shadow="0">
            <root>
                <mxCell id="0"/>
                <mxCell id="1" parent="0"/>
                <mxCell id="2" value="" style="ellipse;shape=cloud;whiteSpace=wrap;html=1;fillColor=#b1ddf0;strokeColor=#10739e;" vertex="1" parent="1">
                    <mxGeometry x="30" y="-50" width="700" height="610" as="geometry"/>
                </mxCell>
                <mxCell id="8" style="edgeStyle=none;html=1;fontSize=19;dashed=1;" edge="1" parent="1" source="3" target="4">
                    <mxGeometry relative="1" as="geometry"/>
                </mxCell>
                <mxCell id="16" style="edgeStyle=none;html=1;entryX=0;entryY=0.25;entryDx=0;entryDy=0;dashed=1;fontSize=19;fontColor=#050505;" edge="1" parent="1" source="3" target="14">
                    <mxGeometry relative="1" as="geometry">
                        <Array as="points">
                            <mxPoint x="230" y="240"/>
                        </Array>
                    </mxGeometry>
                </mxCell>
                <mxCell id="3" value="&lt;font color=&quot;#000000&quot; style=&quot;font-size: 19px;&quot;&gt;預約掛號完成&lt;/font&gt;" style="rounded=0;whiteSpace=wrap;html=1;strokeWidth=3;fillColor=#1ba1e2;fontColor=#ffffff;strokeColor=#006EAF;" vertex="1" parent="1">
                    <mxGeometry x="170" y="120" width="120" height="60" as="geometry"/>
                </mxCell>
                <mxCell id="18" style="edgeStyle=none;html=1;dashed=1;fontSize=19;fontColor=#050505;exitX=0.867;exitY=1.017;exitDx=0;exitDy=0;exitPerimeter=0;entryX=0.875;entryY=-0.017;entryDx=0;entryDy=0;entryPerimeter=0;" edge="1" parent="1" source="4" target="6">
                    <mxGeometry relative="1" as="geometry">
                        <mxPoint x="590" y="350" as="targetPoint"/>
                    </mxGeometry>
                </mxCell>
                <mxCell id="19" style="edgeStyle=none;html=1;entryX=1;entryY=0.25;entryDx=0;entryDy=0;dashed=1;fontSize=19;fontColor=#050505;exitX=0.183;exitY=1.083;exitDx=0;exitDy=0;exitPerimeter=0;" edge="1" parent="1" source="4" target="14">
                    <mxGeometry relative="1" as="geometry">
                        <Array as="points">
                            <mxPoint x="512" y="240"/>
                        </Array>
                    </mxGeometry>
                </mxCell>
                <mxCell id="21" style="edgeStyle=none;html=1;entryX=1;entryY=0.75;entryDx=0;entryDy=0;fontSize=19;fontColor=#050505;exitX=0;exitY=0.75;exitDx=0;exitDy=0;" edge="1" parent="1" source="4" target="3">
                    <mxGeometry relative="1" as="geometry"/>
                </mxCell>
                <mxCell id="4" value="&lt;font color=&quot;#000000&quot; style=&quot;font-size: 19px;&quot;&gt;填寫個人資料&lt;/font&gt;" style="rounded=0;whiteSpace=wrap;html=1;strokeWidth=3;fillColor=#1ba1e2;fontColor=#ffffff;strokeColor=#006EAF;" vertex="1" parent="1">
                    <mxGeometry x="490" y="120" width="120" height="60" as="geometry"/>
                </mxCell>
                <mxCell id="17" style="edgeStyle=none;html=1;entryX=0;entryY=0.75;entryDx=0;entryDy=0;dashed=1;fontSize=19;fontColor=#050505;" edge="1" parent="1" source="5" target="14">
                    <mxGeometry relative="1" as="geometry">
                        <Array as="points">
                            <mxPoint x="230" y="270"/>
                        </Array>
                    </mxGeometry>
                </mxCell>
                <mxCell id="27" style="edgeStyle=none;html=1;entryX=0;entryY=0.25;entryDx=0;entryDy=0;fontSize=19;fontColor=#050505;exitX=1;exitY=0.25;exitDx=0;exitDy=0;" edge="1" parent="1" source="5" target="6">
                    <mxGeometry relative="1" as="geometry"/>
                </mxCell>
                <mxCell id="5" value="&lt;font color=&quot;#050505&quot; style=&quot;font-size: 19px;&quot;&gt;選取掛號部門&lt;/font&gt;" style="rounded=0;whiteSpace=wrap;html=1;strokeWidth=3;fillColor=#1ba1e2;fontColor=#ffffff;strokeColor=#006EAF;" vertex="1" parent="1">
                    <mxGeometry x="170" y="350" width="120" height="60" as="geometry"/>
                </mxCell>
                <mxCell id="10" style="edgeStyle=none;html=1;entryX=1;entryY=0.5;entryDx=0;entryDy=0;dashed=1;fontSize=19;" edge="1" parent="1" source="6" target="5">
                    <mxGeometry relative="1" as="geometry"/>
                </mxCell>
                <mxCell id="20" style="edgeStyle=none;html=1;entryX=1;entryY=0.75;entryDx=0;entryDy=0;dashed=1;fontSize=19;fontColor=#050505;exitX=0.2;exitY=0;exitDx=0;exitDy=0;exitPerimeter=0;" edge="1" parent="1" source="6" target="14">
                    <mxGeometry relative="1" as="geometry">
                        <mxPoint x="510" y="340" as="sourcePoint"/>
                        <Array as="points">
                            <mxPoint x="514" y="270"/>
                        </Array>
                    </mxGeometry>
                </mxCell>
                <mxCell id="6" value="&lt;font color=&quot;#0a0000&quot; style=&quot;font-size: 19px;&quot;&gt;選擇面診時間&lt;/font&gt;" style="rounded=0;whiteSpace=wrap;html=1;strokeWidth=3;fillColor=#1ba1e2;fontColor=#ffffff;strokeColor=#006EAF;" vertex="1" parent="1">
                    <mxGeometry x="490" y="350" width="120" height="60" as="geometry"/>
                </mxCell>
                <mxCell id="22" style="edgeStyle=none;html=1;entryX=1;entryY=1;entryDx=0;entryDy=0;fontSize=19;fontColor=#050505;exitX=0;exitY=0;exitDx=0;exitDy=0;" edge="1" parent="1" source="14" target="3">
                    <mxGeometry relative="1" as="geometry"/>
                </mxCell>
                <mxCell id="24" style="edgeStyle=none;html=1;entryX=0;entryY=1;entryDx=0;entryDy=0;fontSize=19;fontColor=#050505;exitX=1;exitY=0;exitDx=0;exitDy=0;" edge="1" parent="1" source="14" target="4">
                    <mxGeometry relative="1" as="geometry">
                        <mxPoint x="440" y="220" as="sourcePoint"/>
                    </mxGeometry>
                </mxCell>
                <mxCell id="25" style="edgeStyle=none;html=1;entryX=1;entryY=0;entryDx=0;entryDy=0;fontSize=19;fontColor=#050505;exitX=0;exitY=1;exitDx=0;exitDy=0;" edge="1" parent="1" source="14" target="5">
                    <mxGeometry relative="1" as="geometry"/>
                </mxCell>
                <mxCell id="26" style="edgeStyle=none;html=1;entryX=0;entryY=0;entryDx=0;entryDy=0;fontSize=19;fontColor=#050505;exitX=1;exitY=1;exitDx=0;exitDy=0;" edge="1" parent="1" source="14" target="6">
                    <mxGeometry relative="1" as="geometry"/>
                </mxCell>
                <mxCell id="14" value="醫院掛號網站" style="rounded=0;whiteSpace=wrap;html=1;strokeWidth=3;fontSize=19;fillColor=#fa6800;fontColor=#000000;strokeColor=#C73500;" vertex="1" parent="1">
                    <mxGeometry x="320" y="225" width="120" height="60" as="geometry"/>
                </mxCell>
            </root>
        </mxGraphModel>
    </diagram>
</mxfile>